<svg id="eye-off" viewBox="0 0 24 24" fill="none" xmlns="http://www.w3.org/2000/svg">
<path d="M3 3L21 21M10.585 10.587C10.2087 10.963 10 11.4687 10 12C10 13.1046 10.8954 14 12 14C12.5313 14 13.037 13.7913 13.413 13.415M9.363 5.365C10.2125 5.12356 11.1045 4.99989 12 5C19 5 22 12 22 12C21.596 12.943 21.077 13.8363 20.455 14.66M6.618 6.618C4.616 7.98 3 10.07 2 12C2 12 5 19 12 19C13.9358 19.0042 15.8241 18.4025 17.4 17.28" stroke="#000000" stroke-width="2" stroke-linecap="round" stroke-linejoin="round"/>
</svg>
